<svg display="none" xmlns="http://www.w3.org/2000/svg" xmlns:xlink="http://www.w3.org/1999/xlink">
   <symbol id="icon-search" viewBox="0 0 20 20" fill="none">
      <path stroke="currentColor" stroke-linecap="round" stroke-linejoin="round" stroke-width="2" d="m19 19-4-4m0-7A7 7 0 1 1 1 8a7 7 0 0 1 14 0Z"></path>
   </symbol>
   <symbol id="icon-sort" viewBox="0 0 24 24" fill="currentColor">
      <path
         d="M8.574 11.024h6.852a2.075 2.075 0 0 0 1.847-1.086 1.9 1.9 0 0 0-.11-1.986L13.736 2.9a2.122 2.122 0 0 0-3.472 0L6.837 7.952a1.9 1.9 0 0 0-.11 1.986 2.074 2.074 0 0 0 1.847 1.086Zm6.852 1.952H8.574a2.072 2.072 0 0 0-1.847 1.087 1.9 1.9 0 0 0 .11 1.985l3.426 5.05a2.123 2.123 0 0 0 3.472 0l3.427-5.05a1.9 1.9 0 0 0 .11-1.985 2.074 2.074 0 0 0-1.846-1.087Z">
      </path>
   </symbol>
   <symbol id="icon-home" viewBox="0 0 20 20" fill="currentColor">
      <path
         d="m19.707 9.293-2-2-7-7a1 1 0 0 0-1.414 0l-7 7-2 2a1 1 0 0 0 1.414 1.414L2 10.414V18a2 2 0 0 0 2 2h3a1 1 0 0 0 1-1v-4a1 1 0 0 1 1-1h2a1 1 0 0 1 1 1v4a1 1 0 0 0 1 1h3a2 2 0 0 0 2-2v-7.586l.293.293a1 1 0 0 0 1.414-1.414Z">
      </path>
   </symbol>
   <symbol id="icon-arrow" viewBox="0 0 6 10" fill="none">
      <path stroke="currentColor" stroke-linecap="round" stroke-linejoin="round" stroke-width="2" d="m1 9 4-4-4-4"></path>
   </symbol>
   <symbol id="icon-prew" viewBox="0 0 14 10" fill="none">
      <path stroke="currentColor" stroke-linecap="round" stroke-linejoin="round" stroke-width="2" d="M13 5H1m0 0 4 4M1 5l4-4" />
   </symbol>
   <symbol id="icon-next" viewBox="0 0 14 10" fill="none">
      <path stroke="currentColor" stroke-linecap="round" stroke-linejoin="round" stroke-width="2" d="M1 5h12m0 0L9 1m4 4L9 9" />
   </symbol>
</svg>
